# Blender v2.90.0 OBJ File: ''
# www.blender.org
mtllib RoundStoneTemple.mtl
o RoundStoneTemple_Cube.003
v 8.875090 -0.032677 0.802963
v 8.989870 -0.033050 0.918003
v 9.037617 -0.026945 0.755496
v 10.596006 -0.039185 0.917883
v 10.710962 -0.039566 0.803189
v 10.548601 -0.031404 0.755495
v 8.875090 -0.032677 -0.802962
v 9.037617 -0.026944 -0.755495
v 8.989870 -0.033050 -0.918002
v 10.710962 -0.039566 -0.803190
v 10.596006 -0.039185 -0.917883
v 10.548601 -0.031403 -0.755496
v 8.717464 -1.558085 0.803136
v 8.876362 -1.592712 0.755496
v 8.830637 -1.578232 0.918003
v 10.525208 -1.878312 0.803017
v 10.412201 -1.858192 0.917881
v 10.363993 -1.857398 0.755496
v 8.830635 -1.578232 -0.918003
v 8.876362 -1.592711 -0.755496
v 8.717464 -1.558085 -0.803135
v 10.412201 -1.858192 -0.917881
v 10.525208 -1.878312 -0.803017
v 10.363993 -1.857398 -0.755496
v 8.873331 -0.032807 -0.804711
v 8.988979 -0.033278 -0.918876
v 8.865583 -0.120475 -1.000000
v 8.783857 -0.119727 -0.918627
v 8.873331 -0.032807 0.804711
v 8.783857 -0.119727 0.918627
v 8.865583 -0.120475 1.000000
v 8.988979 -0.033278 0.918876
v 10.597080 -0.039129 0.918976
v 10.702246 -0.128491 1.000000
v 10.784031 -0.128475 0.918627
v 10.711170 -0.039586 0.803398
v 10.711170 -0.039586 -0.803399
v 10.784031 -0.128475 -0.918627
v 10.702246 -0.128491 -1.000000
v 10.597080 -0.039129 -0.918976
v 10.615824 -1.804119 -0.918627
v 10.526596 -1.878426 -0.804402
v 10.413256 -1.858442 -0.918978
v 10.535488 -1.789715 -1.000000
v 8.646441 -1.456621 -0.918627
v 8.726809 -1.470586 -1.000000
v 8.829805 -1.577849 -0.918876
v 8.716904 -1.557940 -0.803714
v 8.716904 -1.557940 0.803714
v 8.829807 -1.577849 0.918876
v 8.726809 -1.470586 1.000000
v 8.646441 -1.456621 0.918627
v 10.526596 -1.878426 0.804401
v 10.615824 -1.804119 0.918626
v 10.535488 -1.789715 1.000000
v 10.413256 -1.858443 0.918977
v 8.715275 -1.570383 0.803053
v 8.828367 -1.590515 0.918003
v 8.876362 -1.592711 0.755496
v 10.409433 -1.873267 0.917881
v 10.522520 -1.893402 0.803099
v 10.363993 -1.857398 0.755496
v 8.715275 -1.570382 -0.803053
v 8.876362 -1.592712 -0.755496
v 8.828367 -1.590515 -0.918003
v 10.522520 -1.893402 -0.803100
v 10.409433 -1.873267 -0.917881
v 10.363993 -1.857398 -0.755496
v 8.316170 -3.047328 0.803045
v 8.466591 -3.109148 0.755496
v 8.424007 -3.086878 0.918003
v 10.040222 -3.678299 0.803107
v 9.932371 -3.638748 0.917881
v 9.885128 -3.629578 0.755495
v 8.424007 -3.086878 -0.918003
v 8.466591 -3.109148 -0.755496
v 8.316170 -3.047328 -0.803044
v 9.932371 -3.638748 -0.917882
v 10.040222 -3.678299 -0.803109
v 9.885128 -3.629578 -0.755496
v 8.714134 -1.570269 -0.804194
v 8.827454 -1.590589 -0.918876
v 8.692247 -1.655467 -1.000000
v 8.611931 -1.640749 -0.918626
v 8.714134 -1.570269 0.804194
v 8.611931 -1.640749 0.918627
v 8.692247 -1.655467 1.000000
v 8.827454 -1.590589 0.918876
v 10.410507 -1.873396 0.918977
v 10.500027 -1.979798 1.000000
v 10.580502 -1.993927 0.918626
v 10.523317 -1.893623 0.803924
v 10.523317 -1.893623 -0.803925
v 10.580502 -1.993927 -0.918627
v 10.500027 -1.979798 -1.000000
v 10.410507 -1.873396 -0.918978
v 10.140892 -3.620633 -0.918627
v 10.040964 -3.678495 -0.803874
v 9.933363 -3.639178 -0.918978
v 10.064251 -3.592318 -1.000000
v 8.262280 -2.934481 -0.918626
v 8.339079 -2.962210 -1.000000
v 8.423256 -3.086354 -0.918875
v 8.315075 -3.046828 -0.804242
v 8.315075 -3.046828 0.804242
v 8.423256 -3.086354 0.918875
v 8.339079 -2.962210 1.000000
v 8.262280 -2.934481 0.918627
v 10.040966 -3.678494 0.803874
v 10.140894 -3.620633 0.918626
v 10.064253 -3.592318 1.000000
v 9.933363 -3.639178 0.918977
v 8.311872 -3.059049 0.803143
v 8.419802 -3.098632 0.918003
v 8.466591 -3.109148 0.755496
v 9.927185 -3.653173 0.917881
v 10.034945 -3.692690 0.803008
v 9.885128 -3.629578 0.755495
v 8.311872 -3.059049 -0.803143
v 8.466591 -3.109148 -0.755496
v 8.419804 -3.098632 -0.918003
v 10.034945 -3.692691 -0.803009
v 9.927185 -3.653173 -0.917881
v 9.885128 -3.629578 -0.755496
v 7.675817 -4.451305 0.803220
v 7.813122 -4.538456 0.755496
v 7.775229 -4.509190 0.918003
v 9.263287 -5.373497 0.802932
v 9.164165 -5.315773 0.917882
v 9.119102 -5.298398 0.755495
v 7.775229 -4.509190 -0.918003
v 7.813122 -4.538456 -0.755496
v 7.675817 -4.451305 -0.803220
v 9.164165 -5.315773 -0.917883
v 9.263287 -5.373497 -0.802933
v 9.119102 -5.298399 -0.755496
v 8.311369 -3.058907 -0.803666
v 8.418892 -3.098546 -0.918875
v 8.275745 -3.139294 -1.000000
v 8.199272 -3.110868 -0.918627
v 8.311369 -3.058907 0.803666
v 8.199272 -3.110869 0.918627
v 8.275745 -3.139294 1.000000
v 8.418894 -3.098546 0.918875
v 9.928225 -3.653488 0.918977
v 9.999063 -3.774362 1.000000
v 10.075747 -3.802363 0.918626
v 10.036255 -3.693316 0.804451
v 10.036253 -3.693316 -0.804450
v 10.075745 -3.802363 -0.918627
v 9.999063 -3.774362 -1.000000
v 9.928225 -3.653488 -0.918978
v 9.372852 -5.334534 -0.918627
v 9.265072 -5.374323 -0.804881
v 9.165071 -5.316371 -0.918976
v 9.302296 -5.293183 -1.000000
v 7.642622 -4.331048 -0.918627
v 7.713512 -4.371716 -1.000000
v 7.774584 -4.508548 -0.918875
v 7.675817 -4.451305 -0.803220
v 7.675817 -4.451305 0.803220
v 7.774584 -4.508549 0.918875
v 7.713512 -4.371716 1.000000
v 7.642622 -4.331048 0.918626
v 9.265072 -5.374323 0.804880
v 9.372852 -5.334533 0.918626
v 9.302296 -5.293183 1.000000
v 9.165071 -5.316371 0.918975
vt 0.202833 0.373678
vt 0.084682 0.408322
vt 0.084598 0.408276
vt 0.202889 0.373575
vt 0.206105 0.853818
vt 0.340934 0.813230
vt 0.380136 0.946921
vt 0.244757 0.985580
vt 0.210558 0.837626
vt 0.328704 0.802968
vt 0.328807 0.803024
vt 0.210512 0.837710
vt 0.310060 0.661721
vt 0.444215 0.622375
vt 0.483852 0.757524
vt 0.349697 0.796869
vt 0.119818 0.559583
vt 0.254633 0.518998
vt 0.293848 0.652684
vt 0.158455 0.691349
vt 0.924106 0.614695
vt 0.889456 0.496550
vt 0.889515 0.496441
vt 0.924215 0.614754
vt 0.091666 0.419255
vt 0.202815 0.386657
vt 0.235413 0.497805
vt 0.124264 0.530404
vt 0.248420 0.497801
vt 0.213764 0.379635
vt 0.213775 0.379615
vt 0.248440 0.497812
vt 0.124292 0.543377
vt 0.242438 0.508719
vt 0.242541 0.508775
vt 0.124246 0.543461
vt 0.164970 0.713500
vt 0.199624 0.831657
vt 0.199594 0.831712
vt 0.164915 0.713470
vt 0.017283 0.747588
vt 0.148511 0.709101
vt 0.188149 0.844249
vt 0.056920 0.882737
vt 0.177962 0.713495
vt 0.289111 0.680897
vt 0.321709 0.792046
vt 0.210560 0.824644
vt 0.289099 0.667927
vt 0.170948 0.702571
vt 0.170864 0.702525
vt 0.289155 0.667824
vt 0.334669 0.792041
vt 0.300021 0.673901
vt 0.300093 0.673769
vt 0.334801 0.792113
vt 0.799985 0.660272
vt 0.918136 0.625628
vt 0.918220 0.625674
vt 0.799929 0.660375
vt 0.796688 0.180119
vt 0.661871 0.220721
vt 0.622662 0.087032
vt 0.758052 0.048385
vt 0.792228 0.196333
vt 0.674082 0.230992
vt 0.673979 0.230936
vt 0.792274 0.196249
vt 0.692746 0.372233
vt 0.558583 0.411581
vt 0.518946 0.276432
vt 0.653109 0.237084
vt 0.882984 0.474359
vt 0.748167 0.514961
vt 0.708958 0.381272
vt 0.844349 0.342626
vt 0.332071 0.184963
vt 0.366725 0.303122
vt 0.366698 0.303171
vt 0.332021 0.184936
vt 0.911136 0.614700
vt 0.799988 0.647298
vt 0.767389 0.536149
vt 0.878538 0.503551
vt 0.754407 0.536154
vt 0.789059 0.654306
vt 0.789016 0.654385
vt 0.754328 0.536111
vt 0.878526 0.490573
vt 0.760380 0.525232
vt 0.760277 0.525176
vt 0.878572 0.490489
vt 0.837807 0.320455
vt 0.803157 0.202311
vt 0.803220 0.202197
vt 0.837921 0.320517
vt 0.985499 0.286372
vt 0.854311 0.324848
vt 0.814673 0.189700
vt 0.945862 0.151224
vt 0.824840 0.320459
vt 0.713691 0.353058
vt 0.681093 0.241909
vt 0.792241 0.209311
vt 0.713687 0.366032
vt 0.831838 0.331388
vt 0.831922 0.331435
vt 0.713631 0.366135
vt 0.668108 0.241914
vt 0.702761 0.360067
vt 0.702721 0.360140
vt 0.668035 0.241874
vt 0.456200 0.139391
vt 0.338050 0.174035
vt 0.337966 0.173989
vt 0.456257 0.139288
vt 0.459517 0.619537
vt 0.594328 0.578938
vt 0.633544 0.712631
vt 0.498149 0.751281
vt 0.463943 0.603334
vt 0.582089 0.568675
vt 0.582192 0.568732
vt 0.463897 0.603418
vt 0.563454 0.427426
vt 0.697621 0.388077
vt 0.737258 0.523225
vt 0.603091 0.562575
vt 0.373213 0.325292
vt 0.508036 0.284691
vt 0.547241 0.418387
vt 0.411857 0.457033
vt 0.345066 0.184958
vt 0.456214 0.152360
vt 0.488813 0.263509
vt 0.377664 0.296107
vt 0.501770 0.263504
vt 0.467122 0.145365
vt 0.467197 0.145228
vt 0.501908 0.263579
vt 0.377660 0.309090
vt 0.495806 0.274431
vt 0.495909 0.274487
vt 0.377613 0.309174
vt 0.418347 0.479203
vt 0.453004 0.597373
vt 0.453004 0.597373
vt 0.418347 0.479203
vt 0.270697 0.513287
vt 0.401897 0.474808
vt 0.441534 0.609957
vt 0.310334 0.648436
vt 0.431362 0.479199
vt 0.542511 0.446600
vt 0.575109 0.557749
vt 0.463961 0.590347
vt 0.542484 0.433635
vt 0.424333 0.468279
vt 0.424249 0.468233
vt 0.542540 0.433532
vt 0.588047 0.557744
vt 0.553402 0.439617
vt 0.553503 0.439431
vt 0.588232 0.557846
vt 0.078720 0.419260
vt 0.113367 0.537392
vt 0.117305 0.551346
vt 0.126028 0.549419
vt 0.116979 0.552073
vt 0.113884 0.561610
vt 0.247091 0.993869
vt 0.238668 0.987079
vt 0.246424 0.993433
vt 0.255473 0.990780
vt 0.373899 0.956740
vt 0.381530 0.953809
vt 0.386217 0.945394
vt 0.382158 0.953624
vt 0.252472 0.511640
vt 0.260575 0.516999
vt 0.252086 0.512448
vt 0.244321 0.514726
vt 0.303685 0.663590
vt 0.294654 0.670754
vt 0.294635 0.670788
vt 0.299748 0.661431
vt 0.155871 0.706347
vt 0.160270 0.699151
vt 0.167863 0.707977
vt 0.167898 0.707996
vt 0.199626 0.831765
vt 0.205042 0.834743
vt 0.203418 0.846272
vt 0.199645 0.844619
vt 0.343214 0.798771
vt 0.341176 0.802683
vt 0.331818 0.797570
vt 0.885493 0.482613
vt 0.876812 0.484524
vt 0.885759 0.481900
vt 0.888913 0.472325
vt 0.755706 0.040084
vt 0.764140 0.046896
vt 0.756314 0.040540
vt 0.747368 0.043164
vt 0.628935 0.077204
vt 0.621211 0.080164
vt 0.616584 0.088557
vt 0.620644 0.080330
vt 0.750324 0.522315
vt 0.742228 0.516960
vt 0.750655 0.521524
vt 0.758519 0.519218
vt 0.699184 0.370345
vt 0.708181 0.363141
vt 0.708161 0.363177
vt 0.703080 0.372477
vt 0.847036 0.327577
vt 0.842610 0.334781
vt 0.834928 0.325972
vt 0.834965 0.325992
vt 0.803220 0.202135
vt 0.790512 0.190285
vt 0.799462 0.187660
vt 0.803194 0.189268
vt 0.659588 0.235184
vt 0.661674 0.231298
vt 0.670973 0.236379
vt 0.370713 0.317042
vt 0.379350 0.315145
vt 0.370507 0.317739
vt 0.367288 0.327328
vt 0.500502 0.759574
vt 0.492063 0.752768
vt 0.499951 0.759099
vt 0.508795 0.756506
vt 0.627233 0.722464
vt 0.639466 0.710584
vt 0.639618 0.711103
vt 0.635558 0.719328
vt 0.505884 0.277344
vt 0.513973 0.282696
vt 0.514125 0.283215
vt 0.497644 0.280452
vt 0.556958 0.429331
vt 0.559431 0.437693
vt 0.548029 0.436502
vt 0.553099 0.427224
vt 0.409139 0.472091
vt 0.413530 0.464896
vt 0.421253 0.473675
vt 0.421354 0.473730
vt 0.453066 0.597417
vt 0.458436 0.600456
vt 0.456678 0.612016
vt 0.452999 0.610407
vt 0.596614 0.564474
vt 0.594485 0.568337
vt 0.585208 0.563268
vt 0.046516 0.876687
vt 0.011795 0.758298
vt 0.373766 0.956086
vt 0.453183 0.628950
vt 0.487849 0.747146
vt 0.152371 0.692839
vt 0.308807 0.655588
vt 0.441808 0.616580
vt 0.200180 0.855850
vt 0.484956 0.763701
vt 0.351955 0.802708
vt 0.078554 0.419169
vt 0.113276 0.537558
vt 0.956297 0.157305
vt 0.990996 0.275619
vt 0.629075 0.077858
vt 0.549630 0.405043
vt 0.514942 0.286770
vt 0.850437 0.341136
vt 0.693917 0.378390
vt 0.560925 0.417395
vt 0.802616 0.178084
vt 0.517776 0.270275
vt 0.650769 0.231270
vt 0.299894 0.642314
vt 0.265217 0.524078
vt 0.627088 0.721812
vt 0.706560 0.394576
vt 0.741271 0.512927
vt 0.405767 0.458528
vt 0.562348 0.421250
vt 0.695346 0.382243
vt 0.453584 0.621568
vt 0.738494 0.529363
vt 0.605496 0.568370
vn 0.0037 0.9962 0.0867
vn 0.0000 -0.0000 1.0000
vn -0.1737 -0.9810 0.0859
vn 0.9950 -0.0999 0.0000
vn -0.0000 0.0000 -1.0000
vn 0.0993 0.9951 0.0000
vn 0.0030 1.0000 0.0000
vn 0.0984 0.9951 0.0000
vn 0.0037 0.9962 -0.0867
vn -0.2509 -0.9680 0.0000
vn -0.9948 0.1022 0.0000
vn -0.1752 -0.9845 -0.0000
vn -0.1737 -0.9810 -0.0866
vn -0.0819 -0.9966 0.0000
vn 0.1753 0.9807 0.0868
vn -0.3424 -0.9355 0.0868
vn 0.9654 -0.2609 -0.0000
vn 0.2710 0.9626 0.0000
vn 0.1752 0.9845 -0.0000
vn 0.2667 0.9638 -0.0000
vn 0.1753 0.9807 -0.0865
vn -0.4154 -0.9096 0.0000
vn -0.9654 0.2609 0.0000
vn -0.3444 -0.9388 0.0000
vn -0.3424 -0.9355 -0.0871
vn -0.2545 -0.9671 0.0000
vn 0.3439 0.9351 0.0859
vn -0.5004 -0.8615 0.0855
vn 0.9089 -0.4170 -0.0000
vn 0.3444 0.9388 0.0000
vn 0.4311 0.9023 -0.0000
vn 0.3439 0.9350 -0.0865
vn -0.9098 0.4151 0.0000
vn -0.5029 -0.8643 0.0000
vn -0.5004 -0.8615 -0.0861
vn -0.4199 -0.9076 0.0000
vn -0.0266 0.9992 0.0297
vn 0.0395 0.9986 0.0363
vn -0.0266 0.9992 -0.0297
vn 0.0395 0.9986 -0.0363
vn -0.2043 -0.9785 0.0297
vn -0.1391 -0.9896 0.0365
vn -0.2043 -0.9785 -0.0297
vn -0.1391 -0.9896 -0.0365
vn -0.3612 0.8560 -0.3699
vn -0.3612 0.8560 0.3699
vn 0.3971 0.8293 0.3931
vn 0.3971 0.8293 -0.3931
vn 0.2389 -0.8884 -0.3920
vn -0.5126 -0.7746 -0.3706
vn -0.5126 -0.7746 0.3706
vn 0.2389 -0.8884 0.3921
vn 0.1458 0.9889 0.0297
vn 0.2109 0.9768 0.0364
vn 0.1458 0.9889 -0.0297
vn 0.2109 0.9768 -0.0364
vn -0.3719 -0.9278 0.0297
vn -0.3097 -0.9501 0.0364
vn -0.3719 -0.9278 -0.0297
vn -0.3097 -0.9501 -0.0364
vn -0.2110 0.9047 -0.3701
vn -0.2110 0.9047 0.3701
vn 0.5325 0.7498 0.3928
vn 0.5325 0.7498 -0.3928
vn 0.0825 -0.9160 -0.3927
vn -0.6378 -0.6754 -0.3702
vn -0.6378 -0.6754 0.3702
vn 0.0825 -0.9160 0.3927
vn 0.3162 0.9482 0.0297
vn 0.3781 0.9250 0.0365
vn 0.3162 0.9482 -0.0297
vn 0.3781 0.9250 -0.0365
vn -0.5283 -0.8485 0.0296
vn -0.4710 -0.8814 0.0364
vn -0.5283 -0.8485 -0.0296
vn -0.4710 -0.8814 -0.0364
vn -0.0525 0.9275 -0.3702
vn -0.0525 0.9275 0.3702
vn 0.6538 0.6469 0.3925
vn 0.6538 0.6469 -0.3925
vn -0.0793 -0.9150 -0.3956
vn -0.7467 -0.5546 -0.3673
vn -0.7467 -0.5546 0.3673
vn -0.0793 -0.9150 0.3956
vn -0.6968 0.7173 0.0000
vn 0.0027 0.6763 0.7367
vn 0.7734 0.6339 0.0000
vn 0.0027 0.6763 -0.7367
vn -0.7034 0.0723 -0.7071
vn 0.7036 -0.0706 -0.7071
vn -0.1177 -0.6659 -0.7367
vn -0.8210 -0.5710 0.0000
vn 0.6399 -0.7684 0.0000
vn -0.1177 -0.6659 0.7367
vn -0.7034 0.0723 0.7071
vn 0.7036 -0.0706 0.7071
vn -0.0353 0.9994 0.0000
vn 0.0034 0.9991 0.0427
vn 0.0502 0.9987 0.0000
vn 0.0034 0.9991 -0.0427
vn -0.1746 -0.9837 -0.0428
vn -0.2129 -0.9771 0.0000
vn -0.1287 -0.9917 0.0000
vn -0.1746 -0.9837 0.0428
vn -0.0654 0.9954 0.0694
vn -0.0654 0.9954 -0.0694
vn -0.0118 0.9998 -0.0154
vn -0.0118 0.9998 0.0154
vn -0.1609 -0.9869 -0.0137
vn -0.2662 -0.9593 -0.0946
vn -0.2660 -0.9593 0.0944
vn -0.1610 -0.9869 0.0136
vn -0.5677 0.8232 0.0000
vn 0.1192 0.6656 0.7367
vn 0.8687 0.4953 -0.0000
vn 0.1192 0.6656 -0.7367
vn -0.6826 0.1845 -0.7071
vn 0.6826 -0.1845 -0.7071
vn -0.2322 -0.6351 -0.7367
vn -0.9050 -0.4253 0.0000
vn 0.5011 -0.8654 -0.0000
vn -0.2322 -0.6351 0.7367
vn -0.6826 0.1845 0.7071
vn 0.6826 -0.1845 0.7071
vn 0.1373 0.9905 0.0000
vn 0.1755 0.9836 0.0428
vn 0.2215 0.9752 0.0000
vn 0.1755 0.9836 -0.0428
vn -0.3437 -0.9381 -0.0428
vn -0.3801 -0.9249 0.0000
vn -0.2997 -0.9540 0.0000
vn -0.3437 -0.9381 0.0428
vn 0.0970 0.9921 0.0791
vn 0.0971 0.9921 -0.0791
vn 0.1798 0.9837 0.0039
vn 0.1799 0.9837 -0.0040
vn -0.3414 -0.9399 -0.0024
vn -0.4151 -0.9064 -0.0784
vn -0.4149 -0.9065 0.0781
vn -0.3412 -0.9400 0.0026
vn -0.4206 0.9073 0.0000
vn 0.2336 0.6346 0.7367
vn 0.9402 0.3405 -0.0000
vn 0.2336 0.6346 -0.7367
vn -0.6433 0.2935 -0.7071
vn 0.6427 -0.2948 -0.7071
vn -0.3395 -0.5849 -0.7366
vn -0.9640 -0.2661 -0.0000
vn 0.3463 -0.9381 0.0000
vn -0.3395 -0.5849 0.7366
vn -0.6433 0.2935 0.7071
vn 0.6427 -0.2948 0.7071
vn 0.3081 0.9514 0.0000
vn 0.3445 0.9378 0.0428
vn 0.3882 0.9216 0.0000
vn 0.3445 0.9378 -0.0428
vn -0.5021 -0.8638 -0.0427
vn -0.5359 -0.8443 0.0000
vn -0.4619 -0.8869 0.0000
vn -0.5021 -0.8638 0.0427
vn 0.2510 0.9632 0.0965
vn 0.2505 0.9632 -0.0971
vn 0.3585 0.9334 0.0142
vn 0.3585 0.9334 -0.0143
vn -0.4850 -0.8743 -0.0197
vn -0.6063 -0.7847 -0.1290
vn -0.6062 -0.7847 0.1290
vn -0.4850 -0.8743 0.0198
vn -0.0734 0.9973 0.0000
usemtl None
s off
f 4/1/1 2/2/1 32/3/1 33/4/1
f 51/5/2 55/6/2 34/7/2 31/8/2
f 15/9/3 17/10/3 56/11/3 50/12/3
f 41/13/4 38/14/4 35/15/4 54/16/4
f 27/17/5 39/18/5 44/19/5 46/20/5
f 57/21/6 63/22/6 81/23/6 85/24/6
f 3/25/7 6/26/7 12/27/7 8/28/7
f 10/29/8 5/30/8 36/31/8 37/32/8
f 9/33/9 11/34/9 40/35/9 26/36/9
f 21/37/10 13/38/10 49/39/10 48/40/10
f 28/41/11 45/42/11 52/43/11 30/44/11
f 20/45/12 24/46/12 18/47/12 14/48/12
f 22/49/13 19/50/13 47/51/13 43/52/13
f 16/53/14 23/54/14 42/55/14 53/56/14
f 60/57/15 58/58/15 88/59/15 89/60/15
f 107/61/2 111/62/2 90/63/2 87/64/2
f 71/65/16 73/66/16 112/67/16 106/68/16
f 97/69/17 94/70/17 91/71/17 110/72/17
f 83/73/5 95/74/5 100/75/5 102/76/5
f 113/77/18 119/78/18 137/79/18 141/80/18
f 59/81/19 62/82/19 68/83/19 64/84/19
f 66/85/20 61/86/20 92/87/20 93/88/20
f 65/89/21 67/90/21 96/91/21 82/92/21
f 77/93/22 69/94/22 105/95/22 104/96/22
f 84/97/23 101/98/23 108/99/23 86/100/23
f 76/101/24 80/102/24 74/103/24 70/104/24
f 78/105/25 75/106/25 103/107/25 99/108/25
f 72/109/26 79/110/26 98/111/26 109/112/26
f 116/113/27 114/114/27 144/115/27 145/116/27
f 163/117/2 167/118/2 146/119/2 143/120/2
f 127/121/28 129/122/28 168/123/28 162/124/28
f 153/125/29 150/126/29 147/127/29 166/128/29
f 139/129/5 151/130/5 156/131/5 158/132/5
f 115/133/30 118/134/30 124/135/30 120/136/30
f 122/137/31 117/138/31 148/139/31 149/140/31
f 121/141/32 123/142/32 152/143/32 138/144/32
f 133/145/2 125/146/2 161/147/2 160/148/2
f 140/149/33 157/150/33 164/151/33 142/152/33
f 132/153/34 136/154/34 130/155/34 126/156/34
f 134/157/35 131/158/35 159/159/35 155/160/35
f 128/161/36 135/162/36 154/163/36 165/164/36
f 1/165/37 2/2/37 3/25/37
f 4/1/38 5/30/38 6/26/38
f 7/166/39 8/28/39 9/33/39
f 10/29/40 11/34/40 12/27/40
f 13/38/41 14/48/41 15/9/41
f 16/53/42 17/10/42 18/47/42
f 19/50/43 20/45/43 21/37/43
f 22/49/44 23/54/44 24/46/44
f 25/167/45 26/168/45 27/169/45 28/170/45
f 29/171/46 30/172/46 31/173/46 32/174/46
f 33/175/47 34/176/47 35/177/47 36/178/47
f 37/179/48 38/180/48 39/181/48 40/182/48
f 41/183/49 42/184/49 43/185/49 44/186/49
f 45/187/50 46/188/50 47/189/50 48/190/50
f 49/191/51 50/192/51 51/193/51 52/194/51
f 53/56/52 54/195/52 55/196/52 56/197/52
f 57/21/53 58/58/53 59/81/53
f 60/57/54 61/86/54 62/82/54
f 63/22/55 64/84/55 65/89/55
f 66/85/56 67/90/56 68/83/56
f 69/94/57 70/104/57 71/65/57
f 72/109/58 73/66/58 74/103/58
f 75/106/59 76/101/59 77/93/59
f 78/105/60 79/110/60 80/102/60
f 81/198/61 82/199/61 83/200/61 84/201/61
f 85/202/62 86/203/62 87/204/62 88/205/62
f 89/206/63 90/207/63 91/208/63 92/209/63
f 93/210/64 94/211/64 95/212/64 96/213/64
f 97/214/65 98/215/65 99/216/65 100/217/65
f 101/218/66 102/219/66 103/220/66 104/221/66
f 105/222/67 106/223/67 107/224/67 108/225/67
f 109/112/68 110/226/68 111/227/68 112/228/68
f 113/77/69 114/114/69 115/133/69
f 116/113/70 117/138/70 118/134/70
f 119/78/71 120/136/71 121/141/71
f 122/137/72 123/142/72 124/135/72
f 125/146/73 126/156/73 127/121/73
f 128/161/74 129/122/74 130/155/74
f 131/158/75 132/153/75 133/145/75
f 134/157/76 135/162/76 136/154/76
f 137/229/77 138/230/77 139/231/77 140/232/77
f 141/233/78 142/234/78 143/235/78 144/236/78
f 145/237/79 146/238/79 147/239/79 148/240/79
f 149/241/80 150/242/80 151/243/80 152/244/80
f 153/245/81 154/246/81 155/247/81 156/248/81
f 157/249/82 158/250/82 159/251/82 160/252/82
f 161/253/83 162/254/83 163/255/83 164/256/83
f 165/164/84 166/257/84 167/258/84 168/259/84
f 28/41/85 30/44/85 29/260/85 25/261/85
f 31/8/86 34/7/86 33/262/86 32/174/86
f 35/15/87 38/14/87 37/263/87 36/264/87
f 39/18/88 27/17/88 26/36/88 40/35/88
f 45/265/89 28/170/89 27/17/89 46/20/89
f 38/14/90 41/13/90 44/266/90 39/267/90
f 43/52/91 47/51/91 46/20/91 44/19/91
f 52/43/92 45/42/92 48/40/92 49/39/92
f 41/13/93 54/16/93 53/56/93 42/55/93
f 55/6/94 51/5/94 50/12/94 56/11/94
f 30/172/95 52/268/95 51/5/95 31/8/95
f 54/16/96 35/15/96 34/269/96 55/270/96
f 7/166/97 1/165/97 3/25/97 8/28/97
f 2/2/98 4/1/98 6/26/98 3/25/98
f 5/30/99 10/29/99 12/27/99 6/26/99
f 11/34/100 9/33/100 8/28/100 12/27/100
f 24/46/101 20/45/101 19/50/101 22/49/101
f 13/38/102 21/37/102 20/45/102 14/48/102
f 23/54/103 16/53/103 18/47/103 24/46/103
f 17/10/104 15/9/104 14/48/104 18/47/104
f 32/3/105 2/2/105 1/165/105 29/271/105
f 9/33/106 26/36/106 25/272/106 7/166/106
f 36/31/107 5/30/107 4/1/107 33/4/107
f 40/35/108 11/34/108 10/29/108 37/32/108
f 42/55/109 23/54/109 22/49/109 43/52/109
f 21/37/110 48/40/110 47/51/110 19/50/110
f 15/9/111 50/12/111 49/39/111 13/38/111
f 56/11/112 17/10/112 16/53/112 53/56/112
f 84/97/113 86/100/113 85/273/113 81/274/113
f 87/64/114 90/63/114 89/275/114 88/205/114
f 91/71/115 94/70/115 93/276/115 92/277/115
f 95/74/116 83/73/116 82/92/116 96/91/116
f 101/278/117 84/201/117 83/73/117 102/76/117
f 94/70/118 97/69/118 100/279/118 95/280/118
f 99/108/119 103/107/119 102/76/119 100/75/119
f 108/99/120 101/98/120 104/96/120 105/95/120
f 97/69/121 110/72/121 109/112/121 98/111/121
f 111/62/122 107/61/122 106/68/122 112/67/122
f 86/203/123 108/281/123 107/61/123 87/64/123
f 110/72/124 91/71/124 90/282/124 111/283/124
f 63/22/125 57/21/125 59/81/125 64/84/125
f 58/58/126 60/57/126 62/82/126 59/81/126
f 61/86/127 66/85/127 68/83/127 62/82/127
f 67/90/128 65/89/128 64/84/128 68/83/128
f 80/102/129 76/101/129 75/106/129 78/105/129
f 69/94/130 77/93/130 76/101/130 70/104/130
f 79/110/131 72/109/131 74/103/131 80/102/131
f 73/66/132 71/65/132 70/104/132 74/103/132
f 88/59/133 58/58/133 57/21/133 85/24/133
f 65/89/134 82/92/134 81/23/134 63/22/134
f 92/87/135 61/86/135 60/57/135 89/60/135
f 96/91/136 67/90/136 66/85/136 93/88/136
f 98/111/137 79/110/137 78/105/137 99/108/137
f 77/93/138 104/96/138 103/107/138 75/106/138
f 71/65/139 106/68/139 105/95/139 69/94/139
f 112/67/140 73/66/140 72/109/140 109/112/140
f 140/149/141 142/152/141 141/284/141 137/285/141
f 143/120/142 146/119/142 145/286/142 144/236/142
f 147/127/143 150/126/143 149/287/143 148/288/143
f 151/130/144 139/129/144 138/144/144 152/143/144
f 157/289/145 140/232/145 139/129/145 158/132/145
f 150/126/146 153/125/146 156/290/146 151/291/146
f 155/160/147 159/159/147 158/132/147 156/131/147
f 164/151/148 157/150/148 160/148/148 161/147/148
f 153/125/149 166/128/149 165/164/149 154/163/149
f 167/118/150 163/117/150 162/124/150 168/123/150
f 142/234/151 164/292/151 163/117/151 143/120/151
f 166/128/152 147/127/152 146/293/152 167/294/152
f 119/78/153 113/77/153 115/133/153 120/136/153
f 114/114/154 116/113/154 118/134/154 115/133/154
f 117/138/155 122/137/155 124/135/155 118/134/155
f 123/142/156 121/141/156 120/136/156 124/135/156
f 136/154/157 132/153/157 131/158/157 134/157/157
f 125/146/158 133/145/158 132/153/158 126/156/158
f 135/162/159 128/161/159 130/155/159 136/154/159
f 129/122/160 127/121/160 126/156/160 130/155/160
f 144/115/161 114/114/161 113/77/161 141/80/161
f 121/141/162 138/144/162 137/79/162 119/78/162
f 148/139/163 117/138/163 116/113/163 145/116/163
f 152/143/164 123/142/164 122/137/164 149/140/164
f 154/163/165 135/162/165 134/157/165 155/160/165
f 133/145/166 160/148/166 159/159/166 131/158/166
f 127/121/167 162/124/167 161/147/167 125/146/167
f 168/123/168 129/122/168 128/161/168 165/164/168
f 1/165/169 7/166/169 25/272/169 29/271/169
