# Blender v2.90.0 OBJ File: ''
# www.blender.org
mtllib RoundStoneTempleFrozen.mtl
o IceShell_Cube.004
v 8.997464 0.174999 0.779905
v 9.119967 0.173838 0.912038
v 9.168963 0.181066 0.731201
v 8.997464 0.174999 -0.835441
v 9.168963 0.181066 -0.786737
v 9.119973 0.173838 -0.967574
v 8.801315 -1.763839 0.781385
v 8.970339 -1.800760 0.731201
v 8.922313 -1.784537 0.913409
v 8.922304 -1.784531 -0.969010
v 8.970339 -1.800760 -0.786737
v 8.801309 -1.763839 -0.836934
v 8.923727 0.156400 -0.856211
v 9.101305 0.152410 -1.038413
v 8.925663 -0.029215 -1.200802
v 8.749701 -0.022046 -1.023077
v 8.923727 0.156400 0.800675
v 8.749701 -0.022046 0.967541
v 8.925663 -0.029215 1.145266
v 9.101305 0.152410 0.982877
v 8.596255 -1.523648 -1.023327
v 8.770623 -1.549764 -1.200943
v 8.907356 -1.759390 -1.039643
v 8.732339 -1.731361 -0.856432
v 8.732346 -1.731367 0.800883
v 8.907364 -1.759403 0.984081
v 8.770623 -1.549764 1.145406
v 8.596255 -1.523648 0.967791
v 8.873372 -1.363770 0.780508
v 8.993970 -1.386017 0.912313
v 9.043900 -1.387367 0.731208
v 8.873372 -1.363769 -0.836038
v 9.043900 -1.387367 -0.786744
v 8.993970 -1.386017 -0.967837
v 8.366028 -3.241578 0.780442
v 8.525203 -3.307032 0.731201
v 8.481415 -3.283076 0.912294
v 8.481408 -3.283064 -0.967920
v 8.525203 -3.307032 -0.786737
v 8.366021 -3.241572 -0.835997
v 8.797581 -1.369840 -0.856130
v 8.971605 -1.404100 -1.038797
v 8.768920 -1.553268 -1.200859
v 8.596565 -1.516683 -1.023179
v 8.797575 -1.369840 0.800594
v 8.596565 -1.516683 0.967643
v 8.768920 -1.553268 1.145323
v 8.971605 -1.404106 0.983267
v 8.203789 -2.970021 -1.023186
v 8.371114 -3.025218 -1.200859
v 8.471204 -3.256192 -1.038803
v 8.303523 -3.198145 -0.856159
v 8.303529 -3.198158 0.800604
v 8.471204 -3.256212 0.983228
v 8.371114 -3.025218 1.145323
v 8.203789 -2.970021 0.967650
v 8.505077 -2.859588 0.781515
v 8.620063 -2.902575 0.912884
v 8.669801 -2.912834 0.731208
v 8.505046 -2.859582 -0.837064
v 8.669801 -2.912834 -0.786744
v 8.620033 -2.902581 -0.968542
v 7.642520 -4.578852 0.793230
v 7.838677 -4.720157 0.731201
v 7.797727 -4.687379 0.914525
v 7.797714 -4.687366 -0.970080
v 7.838677 -4.720158 -0.786744
v 7.642501 -4.578819 -0.848811
v 8.429289 -2.852973 -0.856486
v 8.594447 -2.916793 -1.039560
v 8.370863 -3.028981 -1.200924
v 8.207165 -2.963576 -1.023288
v 8.429321 -2.852973 0.800937
v 8.207165 -2.963577 0.967752
v 8.370863 -3.028981 1.145387
v 8.594487 -2.916787 0.983985
v 7.581138 -4.333807 -1.022968
v 7.736511 -4.416581 -1.200744
v 7.792782 -4.658039 -1.041008
v 7.609130 -4.504252 -0.865654
v 7.609136 -4.504272 0.810092
v 7.792788 -4.658051 0.985458
v 7.736511 -4.416581 1.145214
v 7.581138 -4.333807 0.967432
v 9.632586 -0.038693 1.163595
v 9.677635 0.151978 0.982225
v 9.632586 -0.038693 -1.219131
v 9.677635 0.151984 -1.037761
v 9.476343 -1.862362 -1.038582
v 9.468951 -1.666605 -1.219586
v 9.468951 -1.666605 1.164050
v 9.476337 -1.862401 0.982956
v 9.677868 0.171629 0.913221
v 9.692764 0.179536 0.731797
v 9.677868 0.171629 -0.968750
v 9.692764 0.179536 -0.787333
v 9.486076 -1.892536 -0.787333
v 9.472999 -1.882100 -0.968949
v 9.473001 -1.882113 0.913348
v 9.486076 -1.892536 0.731797
v 9.508925 -1.762119 1.145914
v 9.578446 -1.511436 0.984061
v 9.428843 -1.903332 -1.234903
v 9.592823 -1.702135 -1.049924
v 9.049509 -3.468961 -1.039719
v 9.080070 -3.276530 -1.219702
v 9.055769 -3.092759 1.219758
v 9.049490 -3.468999 0.984086
v 9.582157 -1.491256 0.913332
v 9.595837 -1.485560 0.731829
v 9.582157 -1.491256 -0.968856
v 9.595831 -1.485560 -0.787366
v 9.051494 -3.500132 -0.787366
v 9.042536 -3.488309 -0.968984
v 9.042536 -3.488315 0.913364
v 9.051494 -3.500132 0.731829
v 8.992263 -3.384904 1.154715
v 9.193322 -3.219504 0.969681
v 9.025681 -3.490158 -1.233992
v 9.123998 -3.267591 -1.051801
v 8.357548 -4.988392 -1.040804
v 8.425709 -4.806831 -1.219945
v 8.425709 -4.806831 1.164409
v 8.357548 -4.988386 0.985273
v 9.224023 -3.175607 0.896119
v 9.227136 -3.117295 0.731855
v 9.214702 -3.121296 -0.968892
v 9.227136 -3.117295 -0.787391
v 8.351787 -5.018752 -0.787391
v 8.346980 -5.006693 -0.968675
v 8.346980 -5.006693 0.913138
v 8.351787 -5.018752 0.731855
v 9.632246 -0.125174 0.972232
v 9.676917 -0.037232 0.891142
v 9.632246 -0.125174 -1.027768
v 9.676917 -0.037232 -0.946678
v 9.509253 -1.676434 -0.946679
v 9.483832 -1.582444 -1.027768
v 9.483832 -1.582444 0.972232
v 9.509254 -1.676434 0.891142
v 9.677131 -0.037102 0.890193
v 9.692104 -0.030419 0.727728
v 9.677131 -0.037102 -0.945730
v 9.692104 -0.030419 -0.783264
v 9.522805 -1.685817 -0.783264
v 9.509433 -1.676599 -0.945729
v 9.509435 -1.676599 0.890193
v 9.522805 -1.685818 0.727728
v 9.492959 -1.777010 0.972232
v 9.545293 -1.696819 0.891145
v 9.492959 -1.777010 -1.027768
v 9.545293 -1.696819 -0.946681
v 9.114194 -3.292159 -0.946681
v 9.109327 -3.196515 -1.027768
v 9.109328 -3.196515 0.972232
v 9.114194 -3.292159 0.891145
v 9.545473 -1.696725 0.890190
v 9.559011 -1.692259 0.727728
v 9.545473 -1.696725 -0.945726
v 9.559011 -1.692260 -0.783264
v 9.123760 -3.303007 -0.783264
v 9.114303 -3.292332 -0.945727
v 9.114303 -3.292331 0.890190
v 9.123760 -3.303007 0.727728
v 9.082994 -3.389316 0.972232
v 9.142550 -3.317267 0.891147
v 9.082994 -3.389316 -1.027768
v 9.142550 -3.317267 -0.946684
v 8.451816 -4.826055 -0.946683
v 8.468206 -4.733616 -1.027768
v 8.468206 -4.733616 0.972232
v 8.451816 -4.826055 0.891146
v 9.142697 -3.317197 0.890187
v 9.154779 -3.314387 0.727728
v 9.142698 -3.317197 -0.945724
v 9.154779 -3.314387 -0.783264
v 8.457341 -4.837259 -0.783264
v 8.451855 -4.826212 -0.945725
v 8.451855 -4.826212 0.890188
v 8.457341 -4.837258 0.727727
v 8.386227 -2.294970 -1.023183
v 8.555888 -2.341522 -1.200859
v 8.386227 -2.294970 0.967647
v 8.555888 -2.341522 1.145323
v 9.242070 -2.638703 -1.226762
v 9.211132 -2.449518 1.199010
v 9.287519 -2.537179 -1.027768
v 9.287519 -2.537179 0.972232
vt 0.991220 0.007155
vt 0.922069 0.007151
vt 0.921958 0.007040
vt 0.991195 0.007036
vt 0.565292 0.975659
vt 0.565292 0.774896
vt 0.565435 0.774753
vt 0.565435 0.975802
vt 0.907648 0.521508
vt 0.907648 0.722291
vt 0.907576 0.722364
vt 0.907576 0.521435
vt 0.660918 0.507071
vt 0.883914 0.507071
vt 0.883914 0.736728
vt 0.660918 0.736728
vt 0.991169 0.507155
vt 0.922017 0.507151
vt 0.921906 0.507040
vt 0.991143 0.507036
vt 0.476895 0.990022
vt 0.550933 0.990026
vt 0.551044 0.990137
vt 0.476915 0.990142
vt 0.281365 0.016856
vt 0.281365 0.217642
vt 0.281300 0.217707
vt 0.281300 0.016791
vt 0.565288 0.475658
vt 0.565288 0.274897
vt 0.565438 0.274747
vt 0.565438 0.475808
vt 0.692641 0.490106
vt 0.589095 0.490106
vt 0.589095 0.260449
vt 0.692641 0.260449
vt 0.476893 0.490022
vt 0.550931 0.490026
vt 0.551041 0.490137
vt 0.476912 0.490142
vt 0.374164 0.002505
vt 0.295735 0.002500
vt 0.295625 0.002389
vt 0.374149 0.002385
vt 0.281332 0.516847
vt 0.281332 0.717651
vt 0.281332 0.717651
vt 0.281332 0.516847
vt 0.034664 0.502421
vt 0.257610 0.502421
vt 0.257610 0.732077
vt 0.034664 0.732077
vt 0.374141 0.502505
vt 0.295712 0.502500
vt 0.295602 0.502389
vt 0.374126 0.502385
vt 0.907721 0.021529
vt 0.927979 0.027463
vt 0.907721 0.222270
vt 0.927979 0.216337
vt 0.922069 0.236649
vt 0.927979 0.716337
vt 0.922017 0.736649
vt 0.927979 0.527463
vt 0.907480 0.245912
vt 0.922013 0.246900
vt 0.906636 0.246900
vt 0.897416 0.260402
vt 0.907480 0.997887
vt 0.897416 0.983398
vt 0.906636 0.996900
vt 0.922013 0.996900
vt 0.374276 0.509240
vt 0.384463 0.500000
vt 0.392293 0.517293
vt 0.392339 0.517339
vt 0.907602 0.722460
vt 0.914710 0.729606
vt 0.906879 0.746900
vt 0.901733 0.742583
vt 0.544996 0.969714
vt 0.544996 0.780840
vt 0.550933 0.760528
vt 0.544996 0.280840
vt 0.550931 0.260528
vt 0.544996 0.469714
vt 0.565487 0.751270
vt 0.551027 0.750277
vt 0.566230 0.750277
vt 0.575559 0.736741
vt 0.565487 -0.000716
vt 0.575559 0.013813
vt 0.566230 0.000277
vt 0.551027 0.000277
vt 0.374099 0.509241
vt 0.384330 0.500000
vt 0.392307 0.517307
vt 0.392259 0.517259
vt 0.565467 0.274651
vt 0.551021 0.250277
vt 0.566229 0.250277
vt 0.571330 0.254506
vt 0.301700 0.022812
vt 0.301700 0.211686
vt 0.295735 0.231998
vt 0.301700 0.711686
vt 0.295712 0.731998
vt 0.301700 0.522812
vt 0.281217 0.241253
vt 0.295602 0.242249
vt 0.280574 0.242249
vt 0.271137 0.255776
vt 0.281217 0.993245
vt 0.271137 0.978722
vt 0.280574 0.992249
vt 0.295602 0.992249
vt 0.374052 0.509243
vt 0.384225 0.500000
vt 0.392281 0.517281
vt 0.392414 0.517414
vt 0.281410 0.717748
vt 0.288417 0.724968
vt 0.280362 0.742249
vt 0.275344 0.738042
vt 0.647416 0.722488
vt 0.647416 0.521311
vt 0.986704 0.259390
vt 0.907632 0.259953
vt 0.921958 0.236759
vt 0.991195 0.236763
vt 0.897416 0.483398
vt 0.907619 0.483858
vt 0.986699 0.484421
vt 0.986699 0.759378
vt 0.907619 0.759941
vt 0.921906 0.736759
vt 0.991143 0.736763
vt 0.897416 0.760402
vt 0.907632 0.983846
vt 0.991221 0.236644
vt 0.993034 0.216337
vt 0.993034 0.527463
vt 0.991169 0.736644
vt 0.993034 0.716337
vt 0.907502 0.021311
vt 0.907502 0.222488
vt 0.812023 0.490106
vt 0.812023 0.260449
vt 0.825559 0.274753
vt 0.825559 0.475802
vt 0.480686 0.737817
vt 0.565349 0.737204
vt 0.551044 0.760417
vt 0.476915 0.760413
vt 0.575559 0.617360
vt 0.565349 0.617327
vt 0.565349 0.513350
vt 0.480686 0.512737
vt 0.480686 0.237817
vt 0.565349 0.237204
vt 0.551041 0.260418
vt 0.476913 0.260413
vt 0.575559 0.133195
vt 0.575559 0.236741
vt 0.565349 0.133228
vt 0.476895 0.760533
vt 0.475345 0.780840
vt 0.475345 0.469714
vt 0.476893 0.260533
vt 0.475344 0.280840
vt 0.021137 0.717707
vt 0.021137 0.516791
vt 0.371029 0.254662
vt 0.281342 0.255309
vt 0.295624 0.232109
vt 0.374149 0.232113
vt 0.271137 0.478722
vt 0.281353 0.479178
vt 0.371032 0.479826
vt 0.371032 0.754672
vt 0.281353 0.755320
vt 0.295602 0.732109
vt 0.374126 0.732113
vt 0.271137 0.755776
vt 0.281341 0.979189
vt 0.374164 0.231993
vt 0.375482 0.211686
vt 0.375482 0.522812
vt 0.374141 0.731993
vt 0.375482 0.711686
vt 0.993034 0.027463
vt 0.986704 0.984410
vt 0.991249 0.996900
vt 0.475345 0.969714
vt 0.565349 0.013350
vt 0.480686 0.012738
vt 0.476898 0.000277
vt 0.480686 0.617283
vt 0.480686 0.133271
vt 0.375482 0.022812
vt 0.371029 0.979836
vt 0.374126 0.992249
vt 0.993034 0.716337
vt 0.991169 0.736644
vt 0.991169 0.507155
vt 0.993034 0.527463
vt 0.993034 0.216337
vt 0.991221 0.236644
vt 0.991220 0.007155
vt 0.993034 0.027463
vt 0.991143 0.736763
vt 0.986699 0.759378
vt 0.986699 0.484421
vt 0.991143 0.507036
vt 0.991195 0.236763
vt 0.986704 0.259390
vt 0.986704 0.984410
vt 0.991249 0.996900
vt 0.991195 0.007036
vt 0.475344 0.280840
vt 0.476893 0.260533
vt 0.476893 0.490022
vt 0.475345 0.469714
vt 0.475345 0.780840
vt 0.476895 0.760533
vt 0.476895 0.990022
vt 0.475345 0.969714
vt 0.476913 0.260413
vt 0.480686 0.237817
vt 0.480686 0.512737
vt 0.476912 0.490142
vt 0.476915 0.760413
vt 0.480686 0.737817
vt 0.480686 0.012738
vt 0.476898 0.000277
vt 0.480686 0.617283
vt 0.480686 0.133271
vt 0.476915 0.990142
vt 0.375482 0.711686
vt 0.374141 0.731993
vt 0.374141 0.502505
vt 0.375482 0.522812
vt 0.375482 0.211686
vt 0.374164 0.231993
vt 0.374164 0.002505
vt 0.375482 0.022812
vt 0.374126 0.732113
vt 0.371032 0.754672
vt 0.371032 0.479826
vt 0.374126 0.502385
vt 0.374149 0.232113
vt 0.371029 0.254662
vt 0.371029 0.979836
vt 0.374126 0.992249
vt 0.374149 0.002385
vt 0.575559 0.513813
vn 0.0021 0.9594 0.2821
vn -0.0798 0.9968 -0.0000
vn -0.4260 -0.9047 -0.0000
vn -0.9948 0.1017 0.0000
vn -0.1686 -0.9428 -0.2877
vn 0.1674 0.9436 0.2857
vn 0.0869 0.9962 0.0000
vn -0.5706 -0.8212 -0.0000
vn -0.9654 0.2609 0.0000
vn -0.3305 -0.8994 -0.2860
vn 0.3910 0.7914 0.4700
vn -0.9127 -0.4085 0.0000
vn -0.9096 0.4156 0.0000
vn -0.4812 -0.8259 -0.2939
vn -0.0260 0.9991 0.0329
vn -0.0260 0.9991 -0.0329
vn -0.2038 -0.9784 0.0334
vn -0.2038 -0.9784 -0.0334
vn -0.4157 0.7997 -0.4331
vn -0.4157 0.7997 0.4331
vn -0.5583 -0.7067 -0.4346
vn -0.5583 -0.7067 0.4346
vn 0.1464 0.9887 0.0330
vn 0.1464 0.9887 -0.0330
vn -0.3714 -0.9279 0.0329
vn -0.3714 -0.9279 -0.0330
vn -0.2756 0.8579 -0.4336
vn -0.2756 0.8579 0.4336
vn -0.6701 -0.6025 -0.4336
vn -0.6701 -0.6025 0.4336
vn 0.3166 0.9480 0.0331
vn 0.3166 0.9480 -0.0332
vn -0.5812 -0.8136 0.0157
vn -0.5812 -0.8136 -0.0157
vn -0.1260 0.8919 -0.4344
vn -0.1259 0.8919 0.4344
vn -0.7710 -0.4800 -0.4186
vn -0.7710 -0.4800 0.4186
vn -0.7159 0.6982 0.0000
vn -0.0049 0.6799 -0.7333
vn -0.7069 0.0722 -0.7037
vn -0.1257 -0.6657 -0.7355
vn -0.8365 -0.5480 0.0000
vn -0.1257 -0.6658 0.7355
vn -0.7069 0.0722 0.7037
vn -0.0353 0.9994 0.0000
vn 0.0034 0.9991 -0.0423
vn -0.1747 -0.9837 -0.0427
vn -0.2134 -0.9770 0.0000
vn -0.1747 -0.9837 0.0427
vn -0.2047 0.9558 0.2111
vn -0.2047 0.9558 -0.2111
vn -0.3813 -0.8981 -0.2192
vn -0.3812 -0.8982 0.2191
vn -0.5899 0.8075 -0.0000
vn 0.2451 0.5406 -0.8048
vn -0.6860 0.1854 -0.7036
vn -0.2397 -0.6336 -0.7356
vn -0.9163 -0.4006 0.0000
vn -0.1723 -0.5582 0.8116
vn -0.6860 0.1854 0.7036
vn 0.1371 0.9906 0.0000
vn 0.1754 0.9836 -0.0426
vn -0.3437 -0.9381 -0.0426
vn -0.3803 -0.9249 -0.0000
vn -0.3437 -0.9381 0.0425
vn -0.0415 0.9759 0.2142
vn -0.0414 0.9759 -0.2142
vn -0.5271 -0.8224 -0.2141
vn -0.5270 -0.8225 0.2140
vn -0.4457 0.8952 0.0000
vn 0.3199 0.5111 -0.7978
vn -0.6465 0.2953 -0.7035
vn -0.3450 -0.5809 -0.7372
vn -0.9868 -0.1621 0.0000
vn -0.3450 -0.5809 0.7372
vn -0.6465 0.2953 0.7035
vn 0.3076 0.9515 -0.0000
vn 0.3445 0.9378 -0.0428
vn -0.5023 -0.8636 -0.0432
vn -0.5845 -0.8114 -0.0000
vn -0.5023 -0.8636 0.0432
vn 0.1231 0.9679 0.2191
vn 0.1230 0.9679 -0.2192
vn -0.7451 -0.5688 -0.3482
vn -0.7451 -0.5689 0.3481
vn -0.2446 0.9696 0.0000
vn 0.0034 0.9991 0.0423
vn -0.0049 0.6799 0.7333
vn -0.1752 -0.9845 -0.0000
vn 0.0021 0.9594 -0.2821
vn 0.0029 1.0000 0.0000
vn -0.0260 0.0028 -0.9997
vn -0.1686 -0.9428 0.2875
vn -0.0260 0.0028 0.9997
vn 0.1754 0.9836 0.0426
vn 0.1325 0.5679 0.8124
vn -0.3445 -0.9388 0.0000
vn 0.1714 0.5389 -0.8248
vn 0.1752 0.9845 -0.0000
vn -0.0310 0.0028 -0.9995
vn -0.3305 -0.8995 0.2857
vn -0.0284 0.0458 0.9985
vn 0.3760 0.9082 0.1836
vn 0.2934 0.5376 0.7905
vn -0.5030 -0.8643 0.0000
vn 0.2727 0.5557 -0.7854
vn 0.3444 0.9388 0.0000
vn -0.0327 0.0097 -0.9994
vn -0.4812 -0.8259 0.2939
vn -0.0159 0.0102 0.9998
vn 0.9820 -0.1687 0.0851
vn 0.9820 -0.1687 -0.0851
vn 0.9962 -0.0089 -0.0862
vn 0.9962 -0.0089 0.0862
vn 0.9889 -0.0208 0.1468
vn 0.9889 -0.0208 -0.1468
vn 0.9736 -0.1651 -0.1575
vn 0.9736 -0.1651 0.1575
vn 0.9849 -0.1731 -0.0047
vn 0.9846 -0.1749 -0.0000
vn 1.0000 -0.0051 -0.0049
vn 1.0000 -0.0031 -0.0000
vn 0.9942 -0.1006 -0.0383
vn 0.9849 -0.1731 0.0047
vn 0.9942 -0.1006 0.0383
vn 1.0000 -0.0051 0.0049
vn 0.9381 -0.3387 0.0724
vn 0.9381 -0.3387 -0.0724
vn 0.9811 -0.1797 -0.0723
vn 0.9811 -0.1797 0.0723
vn 0.9389 -0.1938 0.2845
vn 0.9693 -0.2070 -0.1330
vn 0.6149 -0.7373 0.2798
vn 0.9496 -0.3082 0.0566
vn 0.9394 -0.3428 -0.0034
vn 0.9389 -0.3442 0.0000
vn 0.9019 -0.1169 0.4159
vn 0.9845 -0.1754 -0.0000
vn 0.9604 -0.2525 -0.1174
vn 0.9394 -0.3428 0.0035
vn 0.9117 -0.2280 0.3418
vn 0.9842 -0.1769 0.0034
vn 0.8649 -0.4984 0.0594
vn 0.8649 -0.4984 -0.0594
vn 0.9356 -0.3478 -0.0598
vn 0.9105 -0.4121 -0.0348
vn 0.9133 -0.3908 0.1147
vn 0.9133 -0.3908 -0.1147
vn 0.9236 -0.3444 -0.1685
vn 0.7960 -0.5123 0.3224
vn 0.8650 -0.5018 -0.0021
vn 0.8644 -0.5027 0.0000
vn 0.8759 -0.3590 -0.3223
vn 0.9387 -0.3446 0.0000
vn 0.9086 -0.4150 -0.0463
vn 0.8650 -0.5018 0.0022
vn 0.8914 -0.3798 0.2472
vn 0.8642 -0.4992 0.0632
vn 0.9240 -0.3132 0.2196
vn 0.9650 -0.2535 -0.0667
vn -0.0901 0.0387 0.9952
vn -0.0418 0.0056 -0.9991
usemtl None
s off
f 93/1/1 2/2/1 20/3/1 86/4/1
f 29/5/2 32/6/2 41/7/2 45/8/2
f 12/9/3 7/10/3 25/11/3 24/12/3
f 16/13/4 21/14/4 28/15/4 18/16/4
f 98/17/5 10/18/5 23/19/5 89/20/5
f 109/21/6 30/22/6 48/23/6 102/24/6
f 57/25/7 60/26/7 69/27/7 73/28/7
f 40/29/8 35/30/8 53/31/8 52/32/8
f 181/33/9 49/34/9 56/35/9 183/36/9
f 114/37/10 38/38/10 51/39/10 105/40/10
f 125/41/11 58/42/11 76/43/11 118/44/11
f 68/45/12 63/46/12 81/47/12 80/48/12
f 72/49/13 77/50/13 84/51/13 74/52/13
f 130/53/14 66/54/14 79/55/14 121/56/14
f 1/57/15 2/2/15 3/58/15
f 4/59/16 5/60/16 6/61/16
f 7/10/17 8/62/17 9/63/17
f 10/18/18 11/64/18 12/9/18
f 13/65/19 14/66/19 15/67/19 16/68/19
f 17/69/20 18/70/20 19/71/20 20/72/20
f 21/73/21 22/74/21 23/75/21 24/76/21
f 25/77/22 26/78/22 27/79/22 28/80/22
f 29/5/23 30/22/23 31/81/23
f 32/6/24 33/82/24 34/83/24
f 35/30/25 36/84/25 37/85/25
f 38/38/26 39/86/26 40/29/26
f 41/87/27 42/88/27 43/89/27 44/90/27
f 45/91/28 46/92/28 47/93/28 48/94/28
f 49/95/29 50/96/29 51/97/29 52/98/29
f 53/99/30 54/100/30 55/101/30 56/102/30
f 57/25/31 58/42/31 59/103/31
f 60/26/32 61/104/32 62/105/32
f 63/46/33 64/106/33 65/107/33
f 66/54/34 67/108/34 68/45/34
f 69/109/35 70/110/35 71/111/35 72/112/35
f 73/113/36 74/114/36 75/115/36 76/116/36
f 77/117/37 78/118/37 79/119/37 80/120/37
f 81/121/38 82/122/38 83/123/38 84/124/38
f 16/13/39 18/16/39 17/125/39 13/126/39
f 87/127/40 15/128/40 14/129/40 88/130/40
f 21/131/41 16/68/41 15/128/41 22/132/41
f 89/20/42 23/19/42 22/132/42 90/133/42
f 28/15/43 21/14/43 24/12/43 25/11/43
f 91/134/44 27/135/44 26/136/44 92/137/44
f 18/70/45 28/138/45 27/135/45 19/139/45
f 4/59/46 1/57/46 3/58/46 5/60/46
f 95/140/47 6/61/47 5/60/47 96/141/47
f 97/142/48 11/64/48 10/18/48 98/17/48
f 7/10/49 12/9/49 11/64/49 8/62/49
f 99/143/50 9/63/50 8/62/50 100/144/50
f 20/3/51 2/2/51 1/57/51 17/145/51
f 6/61/52 14/129/52 13/146/52 4/59/52
f 12/9/53 24/12/53 23/19/53 10/18/53
f 9/63/54 26/136/54 25/11/54 7/10/54
f 44/147/55 46/148/55 45/149/55 41/150/55
f 103/151/56 43/152/56 42/153/56 104/154/56
f 181/155/57 44/90/57 43/152/57 182/156/57
f 105/40/58 51/39/58 50/157/58 106/158/58
f 56/35/59 49/34/59 52/32/59 53/31/59
f 107/159/60 55/160/60 54/161/60 108/162/60
f 183/163/61 56/164/61 55/160/61 184/165/61
f 32/6/62 29/5/62 31/81/62 33/82/62
f 111/166/63 34/83/63 33/82/63 112/167/63
f 113/168/64 39/86/64 38/38/64 114/37/64
f 35/30/65 40/29/65 39/86/65 36/84/65
f 115/169/66 37/85/66 36/84/66 116/170/66
f 48/23/67 30/22/67 29/5/67 45/8/67
f 34/83/68 42/153/68 41/7/68 32/6/68
f 40/29/69 52/32/69 51/39/69 38/38/69
f 37/85/70 54/161/70 53/31/70 35/30/70
f 72/49/71 74/52/71 73/171/71 69/172/71
f 119/173/72 71/174/72 70/175/72 120/176/72
f 77/177/73 72/112/73 71/174/73 78/178/73
f 121/56/74 79/55/74 78/178/74 122/179/74
f 84/51/75 77/50/75 80/48/75 81/47/75
f 123/180/76 83/181/76 82/182/76 124/183/76
f 74/114/77 84/184/77 83/181/77 75/185/77
f 60/26/78 57/25/78 59/103/78 61/104/78
f 127/186/79 62/105/79 61/104/79 128/187/79
f 129/188/80 67/108/80 66/54/80 130/53/80
f 63/46/81 68/45/81 67/108/81 64/106/81
f 131/189/82 65/107/82 64/106/82 132/190/82
f 76/43/83 58/42/83 57/25/83 73/28/83
f 62/105/84 70/175/84 69/27/84 60/26/84
f 68/45/85 80/48/85 79/55/85 66/54/85
f 65/107/86 82/182/86 81/47/86 63/46/86
f 1/57/87 4/59/87 13/146/87 17/145/87
f 2/2/88 93/1/88 94/191/88 3/58/88
f 19/139/89 85/192/89 86/193/89 20/72/89
f 11/64/90 97/142/90 100/144/90 8/62/90
f 6/61/91 95/140/91 88/130/91 14/129/91
f 3/58/92 94/191/92 96/141/92 5/60/92
f 15/128/93 87/127/93 90/133/93 22/132/93
f 9/63/94 99/143/94 92/137/94 26/136/94
f 27/135/95 91/134/95 85/192/95 19/139/95
f 30/22/96 109/21/96 110/194/96 31/81/96
f 47/195/97 101/196/97 102/197/97 48/94/97
f 39/86/98 113/168/98 116/170/98 36/84/98
f 34/83/99 111/166/99 104/154/99 42/153/99
f 31/81/100 110/194/100 112/167/100 33/82/100
f 182/156/101 185/198/101 106/158/101 50/157/101
f 37/85/102 115/169/102 108/162/102 54/161/102
f 184/165/103 186/199/103 101/196/103 47/195/103
f 58/42/104 125/41/104 126/200/104 59/103/104
f 75/185/105 117/201/105 118/202/105 76/116/105
f 67/108/106 129/188/106 132/190/106 64/106/106
f 62/105/107 127/186/107 120/176/107 70/175/107
f 59/103/108 126/200/108 128/187/108 61/104/108
f 71/174/109 119/173/109 122/179/109 78/178/109
f 65/107/110 131/189/110 124/183/110 82/182/110
f 83/181/111 123/180/111 117/201/111 75/185/111
f 99/143/112 100/144/112 148/203/112 147/204/112
f 97/142/113 98/17/113 146/205/113 145/206/113
f 95/140/114 96/141/114 144/207/114 143/208/114
f 94/191/115 93/1/115 141/209/115 142/210/115
f 91/134/116 92/137/116 140/211/116 139/212/116
f 89/20/117 90/133/117 138/213/117 137/214/117
f 87/127/118 88/130/118 136/215/118 135/216/118
f 86/193/119 85/192/119 133/217/119 134/218/119
f 98/17/120 89/20/120 137/214/120 146/205/120
f 100/144/121 97/142/121 145/206/121 148/203/121
f 88/130/122 95/140/122 143/208/122 136/215/122
f 96/141/123 94/191/123 142/210/123 144/207/123
f 90/133/124 87/127/124 135/216/124 138/213/124
f 92/137/125 99/143/125 147/204/125 140/211/125
f 85/192/126 91/134/126 139/212/126 133/217/126
f 93/1/127 86/4/127 134/219/127 141/209/127
f 115/169/128 116/170/128 164/220/128 163/221/128
f 113/168/129 114/37/129 162/222/129 161/223/129
f 111/166/130 112/167/130 160/224/130 159/225/130
f 110/194/131 109/21/131 157/226/131 158/227/131
f 107/159/132 108/162/132 156/228/132 155/229/132
f 105/40/133 106/158/133 154/230/133 153/231/133
f 103/151/134 104/154/134 152/232/134 151/233/134
f 102/197/135 101/196/135 149/234/135 150/235/135
f 114/37/136 105/40/136 153/231/136 162/222/136
f 116/170/137 113/168/137 161/223/137 164/220/137
f 104/154/138 111/166/138 159/225/138 152/232/138
f 112/167/139 110/194/139 158/227/139 160/224/139
f 185/198/140 103/151/140 151/233/140 187/236/140
f 108/162/141 115/169/141 163/221/141 156/228/141
f 186/199/142 107/159/142 155/229/142 188/237/142
f 109/21/143 102/24/143 150/238/143 157/226/143
f 131/189/144 132/190/144 180/239/144 179/240/144
f 129/188/145 130/53/145 178/241/145 177/242/145
f 127/186/146 128/187/146 176/243/146 175/244/146
f 126/200/147 125/41/147 173/245/147 174/246/147
f 123/180/148 124/183/148 172/247/148 171/248/148
f 121/56/149 122/179/149 170/249/149 169/250/149
f 119/173/150 120/176/150 168/251/150 167/252/150
f 118/202/151 117/201/151 165/253/151 166/254/151
f 130/53/152 121/56/152 169/250/152 178/241/152
f 132/190/153 129/188/153 177/242/153 180/239/153
f 120/176/154 127/186/154 175/244/154 168/251/154
f 128/187/155 126/200/155 174/246/155 176/243/155
f 122/179/156 119/173/156 167/252/156 170/249/156
f 124/183/157 131/189/157 179/240/157 172/247/157
f 117/201/158 123/180/158 171/248/158 165/253/158
f 125/41/159 118/44/159 166/255/159 173/245/159
f 101/196/160 186/199/160 188/237/160 149/234/160
f 106/158/161 185/198/161 187/236/161 154/230/161
f 55/160/162 107/159/162 186/199/162 184/165/162
f 43/152/163 103/151/163 185/198/163 182/156/163
f 46/92/61 183/163/61 184/165/61 47/195/61
f 49/256/57 181/155/57 182/156/57 50/157/57
f 44/147/9 181/33/9 183/36/9 46/148/9
